<svg xmlns="http://www.w3.org/2000/svg" width="22" height="22" version="1.1">
 <defs>
  <style id="current-color-scheme" type="text/css">
   .ColorScheme-Text { color:#dfdfdf; } .ColorScheme-Highlight { color:#1565c0; } .ColorScheme-NeutralText { color:#e45100; } .ColorScheme-PositiveText { color:#388e3c; } .ColorScheme-NegativeText { color:#d32f2f; }
</style>
 </defs>
 <path style="fill:currentColor" d="m11 3a8 8 0 0 0 -8 8 8 8 0 0 0 8 8 8 8 0 0 0 8 -8 8 8 0 0 0 -8 -8zm0 4a4 4 0 0 1 4 4 4 4 0 0 1 -4 4 4 4 0 0 1 -4 -4 4 4 0 0 1 4 -4z" class="ColorScheme-Text"/>
 <circle opacity=".35" style="fill:currentColor" cx="11" cy="11" r="3" class="ColorScheme-Text"/>
</svg>
