<svg xmlns="http://www.w3.org/2000/svg" width="24" height="24" version="1.1" viewBox="0 0 24 24"><!-- papirus-colorful-semantic-fallback:orange -->
 <defs>
  <style id="current-color-scheme" type="text/css">
   .ColorScheme-Text { color:#444444; } .ColorScheme-Highlight { color:#1565c0; } .ColorScheme-NeutralText { color:#e45100; } .ColorScheme-PositiveText { color:#388e3c; } .ColorScheme-NegativeText { color:#d32f2f; }
  </style>
 </defs>
 <path style="fill:currentColor" class="ColorScheme-NeutralText" d="M 11.5,5 A 7.5,7.5 0 0 0 4,12.5 7.5,7.5 0 0 0 11.5,20 7.5,7.5 0 0 0 19,12.5 7.5,7.5 0 0 0 11.5,5 Z M 7,8 l 3,0 1,0 0,1 0,3 0,1 -3,0 0,3 3,0 0,1 -4,0 0,-1 0,-3 0,-1 1,0 2,0 0,-3 -3,0 0,-1 z m 5,0 1,0 0,4 2,0 0,-4 1,0 0,4 0,1 0,4 -1,0 0,-4 -3,0 0,-1 0,-4 z"/>
</svg>
